HIERARCHY
ROOT Hips
{
	OFFSET -0.001795 -0.223333 0.028219
	CHANNELS 6 Xposition Yposition Zposition Zrotation Yrotation Xrotation 
	JOINT LeftUpLeg
	{
		OFFSET 0.069520 -0.091406 -0.006815
		CHANNELS 3 Zrotation Yrotation Xrotation
		JOINT LeftLeg
		{
			OFFSET 0.034277 -0.375199 -0.004496
			CHANNELS 3 Zrotation Yrotation Xrotation
			JOINT LeftFoot
			{
				OFFSET -0.013596 -0.397961 -0.043693
				CHANNELS 3 Zrotation Yrotation Xrotation
				JOINT LeftToe
				{
					OFFSET 0.026358 -0.055791 0.119288
					CHANNELS 3 Zrotation Yrotation Xrotation
					End Site
					{
						OFFSET 0.000000 0.000000 0.000000
					}
				}
			}
		}
	}
	JOINT RightUpLeg
	{
		OFFSET -0.067670 -0.090522 -0.004320
		CHANNELS 3 Zrotation Yrotation Xrotation
		JOINT RightLeg
		{
			OFFSET -0.038290 -0.382569 -0.008850
			CHANNELS 3 Zrotation Yrotation Xrotation
			JOINT RightFoot
			{
				OFFSET 0.015774 -0.398415 -0.042312
				CHANNELS 3 Zrotation Yrotation Xrotation
				JOINT RightToe
				{
					OFFSET -0.025372 -0.048144 0.123348
					CHANNELS 3 Zrotation Yrotation Xrotation
					End Site
					{
						OFFSET 0.000000 0.000000 0.000000
					}
				}
			}
		}
	}
	JOINT Spine
	{
		OFFSET -0.002533 0.108963 -0.026696
		CHANNELS 3 Zrotation Yrotation Xrotation
		JOINT Spine1
		{
			OFFSET 0.005487 0.135180 0.001092
			CHANNELS 3 Zrotation Yrotation Xrotation
			JOINT Spine2
			{
				OFFSET 0.001457 0.052922 0.025425
				CHANNELS 3 Zrotation Yrotation Xrotation
				JOINT Neck
				{
					OFFSET -0.002778 0.213870 -0.042857
					CHANNELS 3 Zrotation Yrotation Xrotation
					JOINT Head
					{
						OFFSET 0.005152 0.064970 0.051349
						CHANNELS 3 Zrotation Yrotation Xrotation
						End Site
						{
							OFFSET 0.000000 0.000000 0.000000
						}
					}
				}
				JOINT LeftShoulder
				{
					OFFSET 0.078845 0.121749 -0.034090
					CHANNELS 3 Zrotation Yrotation Xrotation
					JOINT LeftArm
					{
						OFFSET 0.090977 0.030469 -0.008868
						CHANNELS 3 Zrotation Yrotation Xrotation
						JOINT LeftForeArm
						{
							OFFSET 0.259612 -0.012772 -0.027456
							CHANNELS 3 Zrotation Yrotation Xrotation
							JOINT LeftHand
							{
								OFFSET 0.249234 0.008986 -0.001171
								CHANNELS 3 Zrotation Yrotation Xrotation
								End Site
								{
									OFFSET 0.000000 0.000000 0.000000
								}
							}
						}
					}
				}
				JOINT RightShoulder
				{
					OFFSET -0.081759 0.118833 -0.038615
					CHANNELS 3 Zrotation Yrotation Xrotation
					JOINT RightArm
					{
						OFFSET -0.096012 0.032551 -0.009143
						CHANNELS 3 Zrotation Yrotation Xrotation
						JOINT RightForeArm
						{
							OFFSET -0.253742 -0.013329 -0.021401
							CHANNELS 3 Zrotation Yrotation Xrotation
							JOINT RightHand
							{
								OFFSET -0.255298 0.007772 -0.005559
								CHANNELS 3 Zrotation Yrotation Xrotation
								End Site
								{
									OFFSET 0.000000 0.000000 0.000000
								}
							}
						}
					}
				}
			}
		}
	}
}
MOTION
Frames: 14
Frame Time: 0.050000
-0.013884 0.952228 -0.024164 -0.298792 -4.030361 3.200421 8.257693 -0.242597 -9.077203 -2.642405 0.311150 -0.176826 5.564706 14.226910 22.865322 0.000000 0.000000 0.000000 -10.013491 0.433205 -0.500716 4.778112 -0.448813 -1.920607 -10.792479 -24.158169 21.319558 0.000000 0.000000 0.000000 3.459597 -1.159847 16.673040 -7.369281 2.603316 -16.564664 -3.500900 11.701228 29.858277 19.256985 -9.900517 -22.271255 0.000000 0.000000 0.000000 -1.328470 -20.363636 6.716291 -48.091051 -27.710217 2.137244 -31.675089 -55.195591 18.585846 0.000000 0.000000 0.000000 14.536999 6.115762 4.142990 41.317426 14.610321 -1.941050 81.907805 47.097236 48.153275 0.000000 0.000000 0.000000 
-0.013222 0.951841 -0.028203 -0.502281 -3.807592 3.258433 8.719788 -0.221605 -9.714849 -2.953439 0.345264 -0.066510 5.316558 13.969274 23.182169 0.000000 0.000000 0.000000 -9.717664 0.420186 -0.815844 4.958793 -0.467322 -1.411247 -10.984331 -24.439257 20.793811 0.000000 0.000000 0.000000 3.516749 -1.220567 17.387988 -7.675228 2.677270 -17.098481 -3.271386 12.633335 30.272810 19.980844 -10.033489 -23.055897 0.000000 0.000000 0.000000 -2.332340 -21.621685 7.141745 -48.987106 -29.988355 3.082448 -24.405145 -54.198653 14.223195 0.000000 0.000000 0.000000 14.246810 7.067529 4.779774 40.337319 16.987045 -1.222435 81.214528 49.298849 50.068515 0.000000 0.000000 0.000000 
-0.013046 0.951929 -0.032806 -0.543932 -3.603849 3.742937 8.903538 -0.229795 -10.637834 -3.078552 0.356565 0.246267 5.010046 13.585996 23.055019 0.000000 0.000000 0.000000 -9.586308 0.432995 -1.625800 5.049287 -0.479177 -0.759646 -11.272366 -24.838139 20.719415 0.000000 0.000000 0.000000 3.203455 -1.208443 17.907004 -7.894291 2.739717 -17.136757 -3.310723 13.056429 30.173895 20.447480 -10.063765 -23.692500 0.000000 0.000000 0.000000 -2.577454 -22.440973 7.403146 -49.608885 -32.089842 4.017485 -18.626482 -53.789386 11.077434 0.000000 0.000000 0.000000 13.487393 8.442421 5.440487 39.178444 19.550376 -0.397888 81.241702 51.889572 52.680667 0.000000 0.000000 0.000000 
-0.013134 0.952275 -0.037009 -0.745231 -3.579892 4.273320 9.064593 -0.231094 -11.245378 -2.919810 0.338462 0.011329 4.733877 13.239259 23.181609 0.000000 0.000000 0.000000 -9.315602 0.449930 -2.424867 5.071526 -0.480239 -0.734887 -11.681483 -25.404185 20.875084 0.000000 0.000000 0.000000 3.082158 -1.216167 18.287993 -8.258939 2.817005 -17.662521 -2.953693 13.988279 30.696417 20.725838 -10.103946 -23.801742 0.000000 0.000000 0.000000 -2.390582 -23.467947 7.682157 -49.611983 -34.142054 4.744229 -13.987575 -53.140050 8.486377 0.000000 0.000000 0.000000 11.574823 9.010638 5.512840 38.790402 21.327488 0.263673 83.159813 54.350855 57.095335 0.000000 0.000000 0.000000 
-0.013265 0.952978 -0.040377 -0.783660 -3.433420 4.694464 9.007765 -0.250783 -11.520015 -2.565072 0.299477 -0.357589 4.250690 12.641802 23.277442 0.000000 0.000000 0.000000 -9.204019 0.461135 -2.851631 4.889592 -0.464615 -0.919620 -11.675900 -25.362762 21.217814 0.000000 0.000000 0.000000 2.878159 -1.204768 18.591097 -8.460612 2.872554 -17.672834 -3.178710 14.257303 30.512997 21.022330 -10.299796 -23.619807 0.000000 0.000000 0.000000 -1.633738 -24.069256 7.809779 -49.927177 -35.462893 5.294897 -10.646616 -52.884336 6.748081 0.000000 0.000000 0.000000 10.251932 9.592839 5.570166 38.300343 23.118088 0.938973 84.792839 56.258980 60.525490 0.000000 0.000000 0.000000 
-0.013455 0.953551 -0.042756 -0.866031 -3.434078 5.016619 9.009691 -0.255920 -11.348182 -2.171973 0.267241 -1.250977 3.795938 12.132332 23.932115 0.000000 0.000000 0.000000 -9.071595 0.465030 -2.845194 4.839890 -0.457843 -1.548449 -12.027742 -25.802341 21.759908 0.000000 0.000000 0.000000 2.790407 -1.193243 18.616636 -8.795634 2.967833 -17.675665 -2.973844 14.592906 30.634973 21.074021 -10.198263 -23.828054 0.000000 0.000000 0.000000 -0.982775 -24.588697 7.915825 -50.047579 -37.307061 6.026020 -7.299854 -51.763721 4.957067 0.000000 0.000000 0.000000 8.387648 9.981647 5.396995 38.590917 24.979938 1.772527 84.505604 58.525136 62.770322 0.000000 0.000000 0.000000 
-0.013866 0.953933 -0.044607 -0.751922 -3.229084 5.093526 8.735521 -0.286578 -11.232867 -1.764685 0.228710 -1.516485 3.229775 11.426611 23.864318 0.000000 0.000000 0.000000 -9.146685 0.464303 -2.884625 4.855726 -0.460290 -1.919007 -12.410980 -26.263454 22.266376 0.000000 0.000000 0.000000 2.552448 -1.158265 18.687164 -9.003620 3.029407 -17.718974 -2.946676 14.491527 30.635268 21.009034 -10.267415 -23.470254 0.000000 0.000000 0.000000 -0.089180 -24.874748 7.937534 -50.231172 -39.100858 6.779589 -5.153444 -50.979212 3.888759 0.000000 0.000000 0.000000 7.240628 10.750266 5.485814 38.932539 27.476500 2.802758 80.367185 61.168404 61.684971 0.000000 0.000000 0.000000 
-0.014719 0.953738 -0.046248 -0.772631 -2.899488 5.173948 8.848177 -0.286018 -11.042423 -1.781061 0.241701 -2.197188 2.830258 11.023949 24.247917 0.000000 0.000000 0.000000 -9.023511 0.457781 -2.995971 4.652979 -0.447357 -2.304648 -12.631366 -26.475246 22.888708 0.000000 0.000000 0.000000 2.348374 -1.130993 18.693737 -9.145637 3.100349 -17.326734 -2.912563 14.570734 30.369975 20.892905 -10.166213 -23.303451 0.000000 0.000000 0.000000 1.390779 -25.448154 7.980375 -50.415919 -41.579903 7.805280 -3.092065 -49.691274 2.827899 0.000000 0.000000 0.000000 5.494083 11.435457 5.415458 40.581908 30.845635 4.557485 70.635419 64.066713 56.145627 0.000000 0.000000 0.000000 
-0.016047 0.953558 -0.047886 -0.731693 -2.851157 5.044051 8.803892 -0.286487 -10.884487 -1.517123 0.218574 -2.291144 2.424164 10.414070 23.656349 0.000000 0.000000 0.000000 -8.936597 0.451723 -2.998323 4.537040 -0.439060 -2.612854 -12.935025 -26.812558 23.496601 0.000000 0.000000 0.000000 1.705478 -1.023944 19.021749 -9.127593 3.099859 -17.289087 -2.711754 14.674595 30.311320 20.937750 -10.379077 -22.710424 0.000000 0.000000 0.000000 2.867210 -26.366682 8.107297 -50.492093 -44.659459 9.098185 -0.187864 -48.343112 1.489289 0.000000 0.000000 0.000000 4.728123 12.914428 5.855116 41.849641 34.394774 6.362235 53.871584 66.221837 44.200052 0.000000 0.000000 0.000000 
-0.017792 0.953423 -0.049365 -0.659804 -2.673586 5.043685 9.077323 -0.268495 -10.777959 -1.578172 0.228137 -2.500814 1.789880 9.647769 23.822525 0.000000 0.000000 0.000000 -8.852388 0.446324 -3.024902 4.207816 -0.417587 -2.989474 -12.936821 -26.718640 24.276804 0.000000 0.000000 0.000000 0.999649 -0.898395 19.180767 -8.980159 3.073230 -17.054254 -2.580523 14.869928 30.192074 20.797778 -10.202125 -22.754293 0.000000 0.000000 0.000000 4.235157 -27.294371 8.221374 -50.048037 -48.234536 10.444391 2.422298 -46.002851 0.336677 0.000000 0.000000 0.000000 3.723016 13.735430 5.962530 43.855721 38.508512 8.866990 35.675065 65.985691 30.364732 0.000000 0.000000 0.000000 
-0.019757 0.953642 -0.050646 -0.681206 -2.726378 4.948156 9.144393 -0.258173 -10.667149 -1.367701 0.214240 -2.734937 1.437469 9.162029 23.724138 0.000000 0.000000 0.000000 -8.755873 0.443260 -3.024640 4.133748 -0.412553 -3.243187 -12.917792 -26.659491 24.654363 0.000000 0.000000 0.000000 0.249547 -0.760235 19.491458 -8.698006 2.988292 -17.066846 -2.500314 15.084917 30.184751 20.913665 -10.253278 -22.745499 0.000000 0.000000 0.000000 6.076670 -28.013312 8.205290 -50.025521 -51.646207 11.838271 6.218789 -44.396964 -1.169401 0.000000 0.000000 0.000000 2.800036 14.682694 6.112742 47.041796 42.409970 11.991779 18.744347 63.817289 17.758170 0.000000 0.000000 0.000000 
-0.021732 0.953926 -0.051686 -0.741974 -2.504939 4.838878 9.316322 -0.247445 -10.543885 -1.389243 0.221677 -3.001750 0.945872 8.591280 23.877707 0.000000 0.000000 0.000000 -8.536804 0.431496 -3.005324 4.125946 -0.415010 -3.465897 -13.160216 -26.894466 25.204497 0.000000 0.000000 0.000000 -0.414148 -0.641228 19.645738 -8.554100 2.952539 -17.047917 -2.388010 15.119285 30.205479 20.671370 -10.040048 -22.789233 0.000000 0.000000 0.000000 7.760680 -29.253837 8.294008 -48.132757 -55.205966 12.569218 9.470776 -41.035355 -2.256992 0.000000 0.000000 0.000000 1.605963 15.694062 6.195073 50.137255 45.910290 15.310743 5.056906 60.118770 8.219707 0.000000 0.000000 0.000000 
-0.023592 0.954646 -0.052840 -0.765117 -2.434990 4.436349 9.282188 -0.241630 -10.286445 -1.043308 0.194633 -3.119986 0.631079 8.266753 24.199371 0.000000 0.000000 0.000000 -8.337146 0.414694 -2.879629 4.257079 -0.424858 -3.215797 -13.319983 -27.116542 25.006102 0.000000 0.000000 0.000000 -1.240344 -0.493804 20.254027 -8.441616 2.896957 -17.594954 -2.045390 15.192951 30.758012 20.376449 -9.810345 -22.892725 0.000000 0.000000 0.000000 9.757668 -30.284065 8.228709 -45.655755 -58.820281 12.845990 12.645655 -37.209463 -3.060773 0.000000 0.000000 0.000000 0.560765 16.904787 6.348587 53.019889 49.810812 19.080024 -5.611549 54.411885 1.585922 0.000000 0.000000 0.000000 
-0.025256 0.955422 -0.054265 -0.731449 -2.218612 3.988630 9.193637 -0.242190 -9.886111 -0.545764 0.158959 -3.353788 -0.012691 7.596152 24.736624 0.000000 0.000000 0.000000 -8.353685 0.392653 -2.556309 4.416686 -0.438937 -3.585560 -13.681288 -27.465871 25.764175 0.000000 0.000000 0.000000 -2.121898 -0.332371 20.756993 -8.246819 2.854004 -17.525566 -2.063043 15.224508 30.634106 20.259972 -9.857789 -22.419519 0.000000 0.000000 0.000000 12.382664 -31.810471 8.109261 -39.692149 -62.625168 11.198855 14.755806 -30.975806 -3.102071 0.000000 0.000000 0.000000 -1.077046 18.220545 6.353628 55.825483 53.654437 23.344954 -13.375456 47.701484 -2.284483 0.000000 0.000000 0.000000 
